<svg width="18" height="18" viewBox="0 0 26 26" fill="none" xmlns="http://www.w3.org/2000/svg">
<path fill-rule="evenodd" clip-rule="evenodd" d="M13 25.8002C16.3947 25.8002 19.6505 24.4516 22.0509 22.0512C24.4514 19.6507 25.8 16.395 25.8 13.0002C25.8 9.60542 24.4514 6.34969 22.0509 3.94923C19.6505 1.54876 16.3947 0.200195 13 0.200195C9.60518 0.200195 6.34945 1.54876 3.94898 3.94923C1.54852 6.34969 0.199951 9.60542 0.199951 13.0002C0.199951 16.395 1.54852 19.6507 3.94898 22.0512C6.34945 24.4516 9.60518 25.8002 13 25.8002ZM18.9312 10.9314C19.2226 10.6296 19.3839 10.2255 19.3802 9.80595C19.3766 9.38644 19.2083 8.98514 18.9117 8.68849C18.615 8.39183 18.2137 8.22356 17.7942 8.21992C17.3747 8.21627 16.9705 8.37754 16.6688 8.669L11.4 13.9378L9.33115 11.869C9.02939 11.5775 8.62522 11.4163 8.20571 11.4199C7.78619 11.4236 7.38489 11.5918 7.08824 11.8885C6.79159 12.1851 6.62332 12.5864 6.61967 13.006C6.61603 13.4255 6.7773 13.8296 7.06875 14.1314L10.2688 17.3314C10.5688 17.6313 10.9757 17.7999 11.4 17.7999C11.8242 17.7999 12.2311 17.6313 12.5312 17.3314L18.9312 10.9314Z" fill="#4F46E5"/>
</svg>
